<svg width="150" height="133" viewBox="0 0 150 133" fill="none" xmlns="http://www.w3.org/2000/svg">
<path fill-rule="evenodd" clip-rule="evenodd" d="M126.584 99.2559C122.741 99.2559 121.095 96.8755 121.095 96.8755C120.912 95.7769 120.546 80.3962 120.363 65.0155C120.18 49.0855 120.363 33.1554 121.095 32.9723C125.669 24.5496 140.123 7.52093 140.123 7.52093C113.227 12.8309 98.5898 30.4089 98.5898 30.4089C94.1986 26.9299 85.4163 27.6623 85.4163 27.6623C89.6245 29.8596 93.6497 36.4513 93.6497 41.9444V95.7769C93.6497 95.7769 84.6844 103.65 77.7317 103.65C73.7065 103.65 71.145 101.453 69.6813 99.6221C68.7664 98.3404 68.4005 97.2417 68.4005 97.2417V30.7751C67.4857 31.3244 66.3879 31.8737 65.1071 31.8737C63.6434 31.8737 62.1797 31.1413 61.0819 28.9441C60.35 27.2961 59.8011 24.9158 59.8011 21.2537C59.8011 8.98576 73.7065 0.929199 73.7065 0.929199C56.1418 5.6899 39.6749 14.662 17.902 39.5641C-3.87088 64.4662 0.337327 85.1569 0.337327 85.1569C0.337327 85.1569 6.37519 71.0579 20.8295 56.0434C27.5992 48.9024 32.7222 46.7051 36.1986 46.522C40.0408 46.522 41.8705 49.4517 41.8705 52.0151V102.552C41.8705 107.496 38.5771 108.594 35.6497 108.594C33.0882 108.594 30.7096 107.679 30.7096 107.679C45.5298 129.285 81.0251 132.215 81.0251 132.215L96.5772 115.552L96.9431 115.918L111.214 128.003C137.378 112.439 149.82 83.8752 149.82 83.8752C138.476 96.3262 130.975 99.2559 126.584 99.2559Z" fill="white"/>
</svg>
