<svg width="157" height="177" viewBox="0 0 157 177" fill="none" xmlns="http://www.w3.org/2000/svg">
<g clip-path="url(#clip0)">
<path d="M157 125.018C157 127.978 156.372 130.645 155.067 132.869C153.811 135.1 151.921 136.945 149.41 138.396C128.51 150.473 107.567 162.543 86.6746 174.62C81.018 177.866 75.5968 177.773 69.9902 174.477C61.6658 169.579 19.9727 145.625 7.59677 138.404C2.46806 135.443 0 130.889 0 124.968V52.0487C0 49.1385 0.627715 46.5715 1.84035 44.3406C3.09577 42.0596 5.03598 40.1219 7.59677 38.6203C20.0298 31.3985 61.673 7.4948 69.9902 2.54674C75.604 -0.749573 81.0679 -0.892578 86.6746 2.40373C107.567 14.5236 128.51 26.5505 149.403 38.6203C152.014 40.1219 153.904 42.0167 155.16 44.3406C156.372 46.5715 157 49.1385 157 52.0487V125.018Z" fill="#B82BAC"/>
<path d="M78.6926 88.8008L1.74051 44.3899C2.99594 42.1089 4.93615 40.1712 7.49694 38.6696C19.93 31.4477 61.5731 7.54408 69.8904 2.59602C75.5041 -0.700294 80.9681 -0.8433 86.5747 2.45302C107.468 14.5729 128.41 26.5998 149.303 38.6696C151.914 40.1712 153.804 42.066 155.06 44.3899L78.6926 88.8008Z" fill="#79008C"/>
<path d="M55.9094 75.6655C60.4104 67.8144 68.8204 62.5232 78.4501 62.5232C88.1725 62.5232 96.6324 67.8573 101.083 75.8086L78.6926 88.8008L55.9094 75.6655Z" fill="#79008C"/>
<path d="M157 125.017C157 127.977 156.372 130.644 155.067 132.868L78.6926 88.7933L155.16 44.3824C156.372 46.6134 157 49.1803 157 52.0905V125.017Z" fill="#9E11A3"/>
<path d="M101.083 75.8076C96.6324 67.9065 88.1725 62.5223 78.4501 62.5223C68.7776 62.5223 60.3605 67.8064 55.9094 75.6646C53.7338 79.4972 52.4784 83.8589 52.4784 88.5639C52.4784 102.965 64.084 114.598 78.4501 114.598C88.0299 114.598 96.397 109.364 100.891 101.606L123.574 114.698C114.529 130.308 97.6952 140.833 78.4001 140.833C49.5752 140.833 26.2642 117.416 26.2642 88.571C26.2642 79.1183 28.7822 70.1946 33.1833 62.5366C42.1782 46.8773 59.105 36.309 78.4572 36.309C97.8522 36.309 114.779 46.9273 123.774 62.6867L101.083 75.8076ZM129.766 100.92H124.587V75.8505H129.766V100.92ZM141.229 100.92H136.05V75.8505H141.229V100.92Z" fill="white"/>
<path d="M145.437 96.7012H120.429V91.51H145.437V96.7012ZM145.437 85.2606H120.429V80.0694H145.437V85.2606Z" fill="white"/>
</g>
<defs>
<clipPath id="clip0">
<rect width="157" height="177" fill="white" transform="matrix(1 0 0 -1 0 177)"/>
</clipPath>
</defs>
</svg>
