<svg width="81" height="71" viewBox="0 0 81 71" fill="none" xmlns="http://www.w3.org/2000/svg">
<g clip-path="url(#clip0)">
<path d="M52.3999 12.8984V40.3984H79.8999L52.3999 12.8984Z" fill="#F9B231"/>
<path d="M79.8999 12.8984V40.3984H52.3999L79.8999 12.8984Z" fill="#F39100"/>
<path d="M79.8999 26.7V54.2H52.3999L79.8999 26.7Z" fill="#F9B231"/>
<path d="M22.7 0H0V54.2H22.7V0Z" fill="#34A9E1"/>
<path d="M40.3999 17.9L57.9999 0H80.7999L40.3999 40.2V17.9Z" fill="#34A9E1"/>
<path d="M40.4 17.9L22.7 0H0L40.4 40.2V17.9Z" fill="#0190C9"/>
<path d="M0.899902 60.5984V59.2984H4.3999L4.5999 60.9984C4.8999 60.3984 5.2999 59.9984 5.7999 59.6984C6.2999 59.3984 6.7999 59.1984 7.3999 59.1984C7.5999 59.1984 7.6999 59.1984 7.8999 59.1984C8.0999 59.1984 8.1999 59.1984 8.2999 59.2984L7.9999 61.0984L6.7999 60.9984C6.2999 60.9984 5.7999 61.0984 5.3999 61.3984C4.9999 61.6984 4.6999 61.9984 4.4999 62.4984V68.9984L6.1999 69.2984V70.5984H0.899902V69.2984L2.5999 68.9984V60.9984L0.899902 60.5984Z" fill="white"/>
<path d="M17.6997 68.8969C17.2997 69.4969 16.8997 69.9969 16.2997 70.2969C15.6997 70.5969 15.0997 70.7969 14.3997 70.7969C13.1997 70.7969 12.1997 70.3969 11.4997 69.5969C10.7997 68.7969 10.4997 67.5969 10.4997 65.8969V60.8969L9.19971 60.5969V59.2969H10.4997H12.4997V65.9969C12.4997 67.1969 12.6997 67.9969 12.9997 68.4969C13.3997 68.9969 13.8997 69.1969 14.6997 69.1969C15.3997 69.1969 15.9997 69.0969 16.4997 68.7969C16.9997 68.4969 17.2997 68.0969 17.5997 67.4969V60.9969L16.0997 60.6969V59.3969H17.5997H19.5997V68.9969L20.8997 69.2969V70.5969H17.7997L17.6997 68.8969Z" fill="white"/>
<path d="M31.2001 62.9H29.7001L29.4001 61.6C29.2001 61.4 28.8001 61.2 28.5001 61C28.1001 60.9 27.7001 60.8 27.2001 60.8C26.5001 60.8 25.9001 61 25.6001 61.3C25.2001 61.6 25.1001 62 25.1001 62.5C25.1001 62.9 25.3001 63.3 25.6001 63.5C25.9001 63.7 26.5001 64 27.5001 64.2C28.9001 64.5 30.0001 64.9 30.7001 65.4C31.4001 65.9 31.7001 66.6 31.7001 67.5C31.7001 68.5 31.3001 69.3 30.5001 69.9C29.7001 70.5 28.6001 70.8 27.3001 70.8C26.4001 70.8 25.7001 70.7 25.0001 70.5C24.3001 70.3 23.7001 70 23.2001 69.6V67H24.7001L25.1001 68.5C25.3001 68.7 25.7001 68.9 26.1001 69C26.5001 69.1 26.9001 69.1 27.3001 69.1C28.0001 69.1 28.6001 69 29.0001 68.7C29.4001 68.4 29.6001 68 29.6001 67.5C29.6001 67.1 29.4001 66.7 29.1001 66.4C28.8001 66.1 28.1001 65.9 27.2001 65.6C25.8001 65.3 24.8001 64.9 24.1001 64.4C23.4001 63.9 23.1001 63.2 23.1001 62.3C23.1001 61.4 23.5001 60.6 24.3001 60C25.1001 59.4 26.1001 59 27.3001 59C28.2001 59 28.9001 59.1 29.6001 59.3C30.3001 59.5 30.8001 59.8 31.3001 60.2L31.2001 62.9Z" fill="white"/>
<path d="M40.8001 70.6C40.7001 70.3 40.7001 70 40.7001 69.8C40.7001 69.6 40.6001 69.3 40.6001 69.1C40.2001 69.6 39.7001 70 39.1001 70.4C38.5001 70.8 37.9001 70.9 37.2001 70.9C36.0001 70.9 35.1001 70.6 34.5001 70C33.9001 69.4 33.6001 68.6 33.6001 67.6C33.6001 66.5 34.0001 65.7 34.9001 65.1C35.8001 64.5 36.9001 64.2 38.4001 64.2H40.5001V62.9C40.5001 62.2 40.3001 61.7 39.9001 61.3C39.5001 60.9 38.9001 60.7 38.2001 60.7C37.7001 60.7 37.2001 60.8 36.8001 60.9C36.4001 61 36.1001 61.2 35.9001 61.4L35.7001 62.6H34.1001V60.4C34.6001 60 35.2001 59.7 36.0001 59.4C36.8001 59.1 37.5001 59 38.4001 59C39.7001 59 40.7001 59.3 41.5001 60C42.3001 60.7 42.7001 61.6 42.7001 62.8V68.2C42.7001 68.3 42.7001 68.5 42.7001 68.6C42.7001 68.7 42.7001 68.9 42.7001 69L43.5001 69.1V70.4H40.8001V70.6ZM37.5001 69.1C38.2001 69.1 38.8001 68.9 39.4001 68.6C40.0001 68.3 40.4001 67.9 40.6001 67.4V65.6H38.4001C37.6001 65.6 36.9001 65.8 36.4001 66.2C35.9001 66.6 35.7001 67.1 35.7001 67.6C35.7001 68.1 35.9001 68.5 36.2001 68.7C36.4001 68.9 36.9001 69.1 37.5001 69.1Z" fill="white"/>
<path d="M44.8998 55.6984V54.3984H48.5998V63.7984H49.8998L52.2998 60.7984L51.2998 60.6984V59.3984H55.9998V60.6984L54.5998 60.9984L51.5998 64.4984L55.1998 69.0984L56.4998 69.3984V70.6984H51.7998V69.3984L52.7998 69.2984L49.7998 65.5984H48.4998V68.9984L50.1998 69.2984V70.5984H44.7998V69.2984L46.4998 68.9984V55.9984L44.8998 55.6984Z" fill="white"/>
<path d="M58.1001 64.7985C58.1001 63.0985 58.5001 61.7985 59.4001 60.6985C60.3001 59.5985 61.5001 59.0984 63.1001 59.0984C64.6001 59.0984 65.9001 59.5985 66.8001 60.6985C67.7001 61.7985 68.2001 63.0985 68.2001 64.7985V64.9985C68.2001 66.6985 67.7001 67.9984 66.9001 69.0984C66.0001 70.1985 64.8001 70.6984 63.2001 70.6984C61.6001 70.6984 60.4001 70.1985 59.5001 69.0984C58.6001 67.9984 58.2001 66.6985 58.2001 64.9985V64.7985H58.1001ZM60.1001 65.0984C60.1001 66.2984 60.4001 67.2985 60.9001 67.9985C61.4001 68.7985 62.1001 69.1984 63.1001 69.1984C64.1001 69.1984 64.8001 68.7985 65.3001 67.9985C65.8001 67.1985 66.1001 66.1984 66.1001 65.0984V64.8985C66.1001 63.6985 65.8001 62.6985 65.3001 61.9985C64.8001 61.1985 64.1001 60.7985 63.1001 60.7985C62.1001 60.7985 61.4001 61.1985 60.9001 61.9985C60.4001 62.7985 60.2001 63.7985 60.2001 64.8985V65.0984H60.1001Z" fill="white"/>
<path d="M73.6999 60.5969L72.3999 60.7969L74.6999 67.1969L74.8999 67.9969H74.9999L75.1999 67.1969L77.3999 60.7969L75.9999 60.5969V59.2969H80.2999V60.5969L79.3999 60.7969L75.5999 70.5969H74.0999L70.2999 60.7969L69.3999 60.5969V59.2969H73.6999V60.5969Z" fill="white"/>
</g>
<defs>
<clipPath id="clip0">
<rect width="80.8" height="70.8" fill="white"/>
</clipPath>
</defs>
</svg>
