<svg width="16" height="16" fill="none" xmlns="http://www.w3.org/2000/svg"><g clip-path="url(#clip0)"><path d="M14.348 2H2.87c-.574 0-.957.4-.957 1v12c-.574 0-.956-.4-.956-1V1H13.39c0-.6-.382-1-.956-1H.957C.383 0 0 .4 0 1v13c0 1.1.86 2 1.913 2h11.478c1.053 0 1.913-.9 1.913-2V3c0-.6-.382-1-.956-1zM4.783 5h.956v1h-.956V5zm0 3h.956v1h-.956V8zm0 3h.956v1h-.956v-1zm7.652 1h-5.74v-1h5.74v1zm0-3h-5.74V8h5.74v1zm0-3h-5.74V5h5.74v1z" fill="#fff"/></g><defs><clipPath id="clip0"><path fill="#fff" d="M0 0h15.304v16H0z"/></clipPath></defs></svg>