<svg width="15" height="15" fill="none" xmlns="http://www.w3.org/2000/svg"><g clip-path="url(#clip0)" fill="#fff"><path d="M14.6 4.9C13.7 2.4 11.6.5 9 0c1.3 1.3 2.2 3 2.7 4.8h2.9v.1zM12 7.4c0 .9-.1 1.7-.3 2.5h2.9c.2-.8.4-1.7.4-2.5 0-.5-.1-1-.2-1.5h-3c.2.5.2 1 .2 1.5zm-.6 3.5c-.5 1.5-1.3 2.8-2.4 3.9 2.2-.5 4.1-1.9 5.1-3.9h-2.7zM4 7.4c0 .9.1 1.7.3 2.5h6.3c.3-.8.4-1.7.4-2.5 0-.5-.1-1-.1-1.5H4.1c0 .5-.1 1-.1 1.5zm6.7-2.5C10.1 2.9 9 1.2 7.5 0 6 1.2 4.9 2.9 4.3 4.9h6.4zm-6 6c.6 1.5 1.6 2.8 2.8 3.9 1.2-1 2.2-2.3 2.8-3.9H4.7zm-1.4-6C3.8 3 4.7 1.3 6 0 3.4.5 1.3 2.4.4 4.9h2.9zm-2.4 6c1 2 2.9 3.4 5.1 3.9-1.1-1.1-1.9-2.4-2.4-3.9H.9zM3 7.4c0-.5 0-1 .1-1.5h-3c0 .4-.1.9-.1 1.5 0 .9.2 1.7.4 2.5h2.9C3.1 9.1 3 8.2 3 7.4z"/></g><defs><clipPath id="clip0"><path fill="#fff" d="M0 0h15v14.7H0z"/></clipPath></defs></svg>