<svg width="81" height="71" viewBox="0 0 81 71" fill="none" xmlns="http://www.w3.org/2000/svg">
<g clip-path="url(#clip0)">
<path d="M52.3999 12.8984V40.3984H79.8999L52.3999 12.8984Z" fill="#F9B231"/>
<path d="M79.8999 12.8984V40.3984H52.3999L79.8999 12.8984Z" fill="#F39100"/>
<path d="M79.8999 26.6992V54.1992H52.3999L79.8999 26.6992Z" fill="#F9B231"/>
<path d="M22.7 0H0V54.2H22.7V0Z" fill="#34A9E1"/>
<path d="M40.3999 17.9L57.9999 0H80.7999L40.3999 40.2V17.9Z" fill="#34A9E1"/>
<path d="M40.4 17.9L22.7 0H0L40.4 40.2V17.9Z" fill="#0190C9"/>
<path d="M0.899902 60.5992V59.2992H4.3999L4.5999 60.9992C4.8999 60.3992 5.2999 59.9992 5.7999 59.6992C6.2999 59.3992 6.7999 59.1992 7.3999 59.1992C7.5999 59.1992 7.6999 59.1992 7.8999 59.1992C8.0999 59.1992 8.1999 59.1992 8.2999 59.2992L7.9999 61.0992L6.7999 60.9992C6.2999 60.9992 5.7999 61.0992 5.3999 61.3992C4.9999 61.6992 4.6999 61.9992 4.4999 62.4992V68.9992L6.1999 69.2992V70.5992H0.899902V69.2992L2.5999 68.9992V60.9992L0.899902 60.5992Z" fill="#D5D5D5"/>
<path d="M17.7 68.8969C17.3 69.4969 16.9 69.9969 16.3 70.2969C15.7 70.5969 15.1 70.7969 14.4 70.7969C13.2 70.7969 12.2 70.3969 11.5 69.5969C10.8 68.7969 10.5 67.5969 10.5 65.8969V60.8969L9.19995 60.5969V59.2969H10.5H12.5V65.9969C12.5 67.1969 12.7 67.9969 13 68.4969C13.4 68.9969 13.9 69.1969 14.7 69.1969C15.4 69.1969 16 69.0969 16.5 68.7969C17 68.4969 17.3 68.0969 17.6 67.4969V60.9969L16.1 60.6969V59.3969H17.6H19.6V68.9969L20.9 69.2969V70.5969H17.8L17.7 68.8969Z" fill="#D5D5D5"/>
<path d="M31.1999 62.9H29.6999L29.3999 61.6C29.1999 61.4 28.7999 61.2 28.4999 61C28.0999 60.9 27.6999 60.8 27.1999 60.8C26.4999 60.8 25.8999 61 25.5999 61.3C25.1999 61.6 25.0999 62 25.0999 62.5C25.0999 62.9 25.2999 63.3 25.5999 63.5C25.8999 63.7 26.4999 64 27.4999 64.2C28.8999 64.5 29.9999 64.9 30.6999 65.4C31.3999 65.9 31.6999 66.6 31.6999 67.5C31.6999 68.5 31.2999 69.3 30.4999 69.9C29.6999 70.5 28.5999 70.8 27.2999 70.8C26.3999 70.8 25.6999 70.7 24.9999 70.5C24.2999 70.3 23.6999 70 23.1999 69.6V67H24.6999L25.0999 68.5C25.2999 68.7 25.6999 68.9 26.0999 69C26.4999 69.1 26.8999 69.1 27.2999 69.1C27.9999 69.1 28.5999 69 28.9999 68.7C29.3999 68.4 29.5999 68 29.5999 67.5C29.5999 67.1 29.3999 66.7 29.0999 66.4C28.7999 66.1 28.0999 65.9 27.1999 65.6C25.7999 65.3 24.7999 64.9 24.0999 64.4C23.3999 63.9 23.0999 63.2 23.0999 62.3C23.0999 61.4 23.4999 60.6 24.2999 60C25.0999 59.4 26.0999 59 27.2999 59C28.1999 59 28.8999 59.1 29.5999 59.3C30.2999 59.5 30.7999 59.8 31.2999 60.2L31.1999 62.9Z" fill="#D5D5D5"/>
<path d="M40.7999 70.6C40.6999 70.3 40.6999 70 40.6999 69.8C40.6999 69.6 40.5999 69.3 40.5999 69.1C40.1999 69.6 39.6999 70 39.0999 70.4C38.4999 70.8 37.8999 70.9 37.1999 70.9C35.9999 70.9 35.0999 70.6 34.4999 70C33.8999 69.4 33.5999 68.6 33.5999 67.6C33.5999 66.5 33.9999 65.7 34.8999 65.1C35.7999 64.5 36.8999 64.2 38.3999 64.2H40.4999V62.9C40.4999 62.2 40.2999 61.7 39.8999 61.3C39.4999 60.9 38.8999 60.7 38.1999 60.7C37.6999 60.7 37.1999 60.8 36.7999 60.9C36.3999 61 36.0999 61.2 35.8999 61.4L35.6999 62.6H34.0999V60.4C34.5999 60 35.1999 59.7 35.9999 59.4C36.7999 59.1 37.4999 59 38.3999 59C39.6999 59 40.6999 59.3 41.4999 60C42.2999 60.7 42.6999 61.6 42.6999 62.8V68.2C42.6999 68.3 42.6999 68.5 42.6999 68.6C42.6999 68.7 42.6999 68.9 42.6999 69L43.4999 69.1V70.4H40.7999V70.6ZM37.4999 69.1C38.1999 69.1 38.7999 68.9 39.3999 68.6C39.9999 68.3 40.3999 67.9 40.5999 67.4V65.6H38.3999C37.5999 65.6 36.8999 65.8 36.3999 66.2C35.8999 66.6 35.6999 67.1 35.6999 67.6C35.6999 68.1 35.8999 68.5 36.1999 68.7C36.3999 68.9 36.8999 69.1 37.4999 69.1Z" fill="#D5D5D5"/>
<path d="M44.8998 55.6984V54.3984H48.5998V63.7984H49.8998L52.2998 60.7984L51.2998 60.6984V59.3984H55.9998V60.6984L54.5998 60.9984L51.5998 64.4984L55.1998 69.0984L56.4998 69.3984V70.6984H51.7998V69.3984L52.7998 69.2984L49.7998 65.5984H48.4998V68.9984L50.1998 69.2984V70.5984H44.7998V69.2984L46.4998 68.9984V55.9984L44.8998 55.6984Z" fill="#D5D5D5"/>
<path d="M58.0999 64.7977C58.0999 63.0977 58.4999 61.7977 59.3999 60.6977C60.2999 59.5977 61.4999 59.0977 63.0999 59.0977C64.5999 59.0977 65.8999 59.5977 66.7999 60.6977C67.6999 61.7977 68.1999 63.0977 68.1999 64.7977V64.9977C68.1999 66.6977 67.6999 67.9977 66.8999 69.0977C65.9999 70.1977 64.7999 70.6977 63.1999 70.6977C61.5999 70.6977 60.3999 70.1977 59.4999 69.0977C58.5999 67.9977 58.1999 66.6977 58.1999 64.9977V64.7977H58.0999ZM60.0999 65.0977C60.0999 66.2977 60.3999 67.2977 60.8999 67.9977C61.3999 68.7977 62.0999 69.1977 63.0999 69.1977C64.0999 69.1977 64.7999 68.7977 65.2999 67.9977C65.7999 67.1977 66.0999 66.1977 66.0999 65.0977V64.8977C66.0999 63.6977 65.7999 62.6977 65.2999 61.9977C64.7999 61.1977 64.0999 60.7977 63.0999 60.7977C62.0999 60.7977 61.3999 61.1977 60.8999 61.9977C60.3999 62.7977 60.1999 63.7977 60.1999 64.8977V65.0977H60.0999Z" fill="#D5D5D5"/>
<path d="M73.6999 60.5969L72.3999 60.7969L74.6999 67.1969L74.8999 67.9969H74.9999L75.1999 67.1969L77.3999 60.7969L75.9999 60.5969V59.2969H80.2999V60.5969L79.3999 60.7969L75.5999 70.5969H74.0999L70.2999 60.7969L69.3999 60.5969V59.2969H73.6999V60.5969Z" fill="#D5D5D5"/>
</g>
<defs>
<clipPath id="clip0">
<rect width="80.8" height="70.8" fill="white"/>
</clipPath>
</defs>
</svg>
